#N canvas 107 168 450 300 10;
#X msg 149 12 poll;
#X obj 139 52 mousestate;
#X floatatom 115 101 5 0 0 0 - - -;
#X floatatom 187 94 5 0 0 0 - - -;
#X obj 94 149 autoscale;
#X obj 188 146 autoscale;
#X floatatom 114 178 5 0 0 0 - - -;
#X floatatom 208 179 5 0 0 0 - - -;
#X obj 85 211 send x;
#X obj 205 224 send y;
#X obj 31 72 send button;
#X connect 0 0 1 0;
#X connect 1 0 10 0;
#X connect 1 1 2 0;
#X connect 1 2 3 0;
#X connect 2 0 4 0;
#X connect 3 0 5 0;
#X connect 4 0 6 0;
#X connect 5 0 7 0;
#X connect 6 0 8 0;
#X connect 7 0 9 0;
