#N canvas 395 0 962 676 16;
#X obj 203 25 noise~;
#X obj 203 65 dac~;
#X obj 17 62 print;
#X msg 17 25 Hello World!;
#X obj 323 67 dac~;
#X text 417 27 We can hear around 20-20.000;
#X msg 34 214 poll;
#X obj 41 435 dac~;
#X floatatom 105 289 5 0 0 0 - - -;
#X floatatom 30 296 5 0 0 0 - - -;
#X obj 322 30 osc~ 300;
#X obj 38 345 osc~;
#X obj 34 253 mousestate;
#X obj 54 386 *~;
#X floatatom 118 385 5 0 0 0 - - -;
#X obj 123 340 / 767;
#X msg 98 213 nopoll;
#X text 12 184 Press poll to play;
#X msg 347 216 poll;
#X obj 342 496 dac~;
#X floatatom 418 290 5 0 0 0 - - -;
#X floatatom 343 297 5 0 0 0 - - -;
#X obj 343 414 osc~;
#X obj 347 254 mousestate;
#X obj 344 453 *~;
#X floatatom 425 397 5 0 0 0 - - -;
#X msg 411 214 nopoll;
#X text 325 185 Press poll to play;
#X text 46 315 767max screen resolution;
#X text 494 341;
#X obj 422 338 autoscale;
#X obj 304 340 autoscale;
#X obj 315 380 * 21000;
#X floatatom 252 413 5 0 0 0 - - -;
#X msg 635 192 poll;
#X obj 690 577 dac~;
#X floatatom 706 266 5 0 0 0 - - -;
#X floatatom 631 273 5 0 0 0 - - -;
#X obj 709 475 osc~;
#X obj 635 230 mousestate;
#X obj 703 527 *~;
#X floatatom 785 378 5 0 0 0 - - -;
#X msg 699 190 nopoll;
#X text 613 161 Press poll to play;
#X obj 761 331 autoscale;
#X obj 592 319 autoscale;
#X floatatom 644 488 5 0 0 0 - - -;
#X text 408 283;
#X text 858 396;
#X obj 582 354 reverse;
#X obj 616 386 one2two;
#X obj 576 421 * 300;
#X obj 572 456 + 300;
#X obj 573 501 osc~;
#X obj 660 421 *~ 6000;
#X connect 3 0 2 0;
#X connect 6 0 12 0;
#X connect 8 0 15 0;
#X connect 9 0 11 0;
#X connect 11 0 13 0;
#X connect 12 1 9 0;
#X connect 12 2 8 0;
#X connect 15 0 13 1;
#X connect 15 0 14 0;
#X connect 16 0 12 0;
#X connect 18 0 23 0;
#X connect 20 0 30 0;
#X connect 21 0 31 0;
#X connect 22 0 24 0;
#X connect 23 1 21 0;
#X connect 23 2 20 0;
#X connect 26 0 23 0;
#X connect 30 0 24 1;
#X connect 30 0 25 0;
#X connect 31 0 32 0;
#X connect 32 0 22 0;
#X connect 32 0 33 0;
#X connect 34 0 39 0;
#X connect 36 0 44 0;
#X connect 37 0 45 0;
#X connect 38 0 40 0;
#X connect 39 1 37 0;
#X connect 39 2 36 0;
#X connect 40 0 35 0;
#X connect 42 0 39 0;
#X connect 44 0 41 0;
#X connect 44 0 40 1;
#X connect 45 0 49 0;
#X connect 49 0 50 0;
#X connect 49 0 51 0;
#X connect 50 1 54 0;
#X connect 51 0 52 0;
#X connect 52 0 53 0;
#X connect 53 0 40 0;
#X connect 54 0 38 0;
#X connect 54 0 46 0;
