#N canvas 395 48 775 551 10;
#X msg 87 44 poll;
#X obj 127 468 dac~;
#X floatatom 158 118 5 0 0 0 - - -;
#X floatatom 83 125 5 0 0 0 - - -;
#X obj 87 82 mousestate;
#X obj 138 426 *~;
#X floatatom 237 230 5 0 0 0 - - -;
#X msg 151 42 nopoll;
#X text 65 13 Press poll to play;
#X obj 213 183 autoscale;
#X obj 44 171 autoscale;
#X obj 34 206 reverse;
#X obj 68 238 one2two;
#X obj 25 353 osc~;
#X text 310 248;
#X obj 127 283 adc~;
#X obj 83 380 *~;
#X obj 28 273 * 3000;
#X obj 24 308 + 3000;
#X floatatom 133 349 5 0 0 0 - - -;
#X obj 151 319 snapshot~;
#X msg 161 254 bang;
#X connect 0 0 4 0;
#X connect 2 0 9 0;
#X connect 3 0 10 0;
#X connect 4 1 3 0;
#X connect 4 2 2 0;
#X connect 5 0 1 0;
#X connect 7 0 4 0;
#X connect 9 0 6 0;
#X connect 9 0 5 1;
#X connect 10 0 11 0;
#X connect 11 0 12 0;
#X connect 11 0 17 0;
#X connect 13 0 16 0;
#X connect 15 0 16 1;
#X connect 15 1 20 0;
#X connect 16 0 5 0;
#X connect 17 0 18 0;
#X connect 18 0 13 0;
#X connect 20 0 19 0;
#X connect 21 0 20 0;
